# xmcd
#
# Track frame offsets:
#  150
#  16177
#  41992
#  66704
#  86041
#  108691
#  129661
#  149062
#  167344
#  190007
#  214278
#  239138
#  256361
#  276065
#  293626
#  309599
#
# Disc length: 4385 seconds
#
# Revision: 3
# Processed by: cddbd v1.5.1PL2 Copyright (c) Steve Scherf et al.
# Submitted via: Collectorz.com_Music_Collector 6.11
#
DISCID=01111f10
DTITLE=Blues Disciples - Under Construction
DYEAR=2006
DGENRE=Blues
TTITLE0=Brady Street
TTITLE1=Dancin' Woman
TTITLE2=Takin' The Carseat Out
TTITLE3=Fine Woman Blues
TTITLE4=Blues Machine
TTITLE5=Testify
TTITLE6=Gettin' Old
TTITLE7=Please Leave Me
TTITLE8=Keep Your Hands Off My Daughter
TTITLE9=Seven G's
TTITLE10=My Baby
TTITLE11=Shoe Caddy
TTITLE12=You Played Me
TTITLE13=Barefoot Jimmy
TTITLE14=Under Construction
TTITLE15=Gettin' Old - Demo Version
EXTD=
EXTT0=
EXTT1=
EXTT2=
EXTT3=
EXTT4=
EXTT5=
EXTT6=
EXTT7=
EXTT8=
EXTT9=
EXTT10=
EXTT11=
EXTT12=
EXTT13=
EXTT14=
EXTT15=
PLAYORDER=
